<svg xmlns="http://www.w3.org/2000/svg" viewBox="0 0 512 512" width="100%" height="100%">
  <defs>
    <!-- Background Gradient -->
    <linearGradient id="bgGrad" x1="0%" y1="0%" x2="100%" y2="100%">
      <stop offset="0%" stop-color="#050B1E"/>
      <stop offset="50%" stop-color="#0A1638"/>
      <stop offset="100%" stop-color="#040816"/>
    </linearGradient>

    <!-- Brand Cyan-Blue-Purple Gradient -->
    <linearGradient id="brandGrad" x1="0%" y1="0%" x2="100%" y2="100%">
      <stop offset="0%" stop-color="#00F5D4"/>
      <stop offset="30%" stop-color="#00BAF2"/>
      <stop offset="70%" stop-color="#3B82F6"/>
      <stop offset="100%" stop-color="#8B5CF6"/>
    </linearGradient>

    <!-- Secondary Accent Gradient -->
    <linearGradient id="accentGrad" x1="0%" y1="100%" x2="100%" y2="0%">
      <stop offset="0%" stop-color="#00E5FF"/>
      <stop offset="100%" stop-color="#7C3AED"/>
    </linearGradient>

    <!-- Glow Effect -->
    <filter id="neonGlow" x="-20%" y="-20%" width="140%" height="140%">
      <feGaussianBlur stdDeviation="12" result="blur" />
      <feComposite in="SourceGraphic" in2="blur" operator="over" />
    </filter>
    
    <filter id="softGlow" x="-30%" y="-30%" width="160%" height="160%">
      <feGaussianBlur stdDeviation="24" result="blur" />
      <feColorMatrix type="matrix" values="
        0 0 0 0 0.0
        0 0 0 0 0.8
        0 0 0 0 1.0
        0 0 0 0.35 0"/>
      <feComposite in="SourceGraphic" in2="blur" operator="over" />
    </filter>
  </defs>

  <!-- Squircle Base Canvas -->
  <rect x="16" y="16" width="480" height="480" rx="112" fill="url(#bgGrad)" stroke="url(#brandGrad)" stroke-width="6" stroke-opacity="0.5"/>
  
  <!-- Subtle Internal Radial Ambient Glow -->
  <circle cx="256" cy="256" r="160" fill="none" stroke="url(#brandGrad)" stroke-width="1.5" stroke-opacity="0.2"/>
  
  <!-- Ambient Center Light Spot -->
  <circle cx="256" cy="240" r="120" fill="#00f2fe" opacity="0.06" filter="blur(30px)"/>

  <!-- Main Central Icon: Minimalist Star-Ball & Prediction Emblem -->
  <g id="emblem" filter="url(#softGlow)">
    
    <!-- Outer Dynamic Orbital Arc (Predictive Trajectory) -->
    <path d="M 120 280 A 150 150 0 1 1 392 280" fill="none" stroke="url(#brandGrad)" stroke-width="14" stroke-linecap="round" stroke-dasharray="280 40 40 40" />
    <path d="M 380 310 A 150 150 0 0 1 132 310" fill="none" stroke="url(#accentGrad)" stroke-width="14" stroke-linecap="round" opacity="0.8" />

    <!-- Central Geometric Star-Ball Motif -->
    <!-- Center Central Star Pentagram Core -->
    <polygon points="256,150 280,210 345,215 295,258 312,322 256,285 200,322 217,258 167,215 232,210" 
             fill="url(#brandGrad)" />
    
    <!-- Inner Core Cutout Star (Creates sharp negative space) -->
    <polygon points="256,182 271,220 312,224 280,252 291,292 256,269 221,292 232,252 200,224 241,220" 
             fill="#08112A" />

    <!-- Inner Core Mini Star Glow -->
    <polygon points="256,212 263,230 283,232 268,245 273,264 256,253 239,264 244,245 229,232 249,230" 
             fill="url(#brandGrad)" opacity="0.9" />

    <!-- Sleek Geometric Football Panel Radiants (Connecting star vertices to outer perimeter) -->
    <!-- Top Ray -->
    <path d="M 256 108 L 256 142" stroke="url(#brandGrad)" stroke-width="10" stroke-linecap="round" />
    
    <!-- Top-Right Ray -->
    <path d="M 372 178 L 340 205" stroke="url(#brandGrad)" stroke-width="10" stroke-linecap="round" />
    
    <!-- Bottom-Right Ray -->
    <path d="M 358 338 L 320 315" stroke="url(#brandGrad)" stroke-width="10" stroke-linecap="round" />
    
    <!-- Bottom-Left Ray -->
    <path d="M 154 338 L 192 315" stroke="url(#brandGrad)" stroke-width="10" stroke-linecap="round" />
    
    <!-- Top-Left Ray -->
    <path d="M 140 178 L 172 205" stroke="url(#brandGrad)" stroke-width="10" stroke-linecap="round" />

    <!-- Prediction Pulse Nodes (Glowing Analytics Dots) -->
    <circle cx="256" cy="98" r="9" fill="#00F5D4" />
    <circle cx="384" cy="170" r="8" fill="#00BAF2" />
    <circle cx="368" cy="348" r="8" fill="#3B82F6" />
    <circle cx="144" cy="348" r="8" fill="#8B5CF6" />
    <circle cx="128" cy="170" r="8" fill="#00F5D4" />

    <!-- Upward Trendline Pulse (Monte Carlo / Simulation accent) -->
    <path d="M 170 380 L 225 350 L 285 370 L 345 330" fill="none" stroke="url(#brandGrad)" stroke-width="6" stroke-linecap="round" stroke-linejoin="round" opacity="0.75" />
    <circle cx="170" cy="380" r="5" fill="#8B5CF6" />
    <circle cx="225" cy="350" r="5" fill="#3B82F6" />
    <circle cx="285" cy="370" r="5" fill="#00BAF2" />
    <circle cx="345" cy="330" r="6" fill="#00F5D4" />
  </g>
</svg>
